<?xml version="1.0" encoding="utf-8"?>
<!-- Generator: Adobe Illustrator 24.2.1, SVG Export Plug-In . SVG Version: 6.00 Build 0)  -->
<svg version="1.1" id="Layer_1" xmlns="http://www.w3.org/2000/svg" xmlns:xlink="http://www.w3.org/1999/xlink" x="0px" y="0px"
	 viewBox="0 0 300 300" style="enable-background:new 0 0 300 300;" xml:space="preserve">
<style type="text/css">
	.st0{fill:#0466C8;}
	.st1{fill:#979DAC;}
</style>
<path class="st0" d="M124.19,129.19H34c-3.87,0-7-3.13-7-7V32c0-3.87,3.13-7,7-7h90.19c3.87,0,7,3.13,7,7v90.19
	C131.19,126.05,128.05,129.19,124.19,129.19z"/>
<path class="st0" d="M124.19,239H34c-3.87,0-7-3.13-7-7v-90.19c0-3.87,3.13-7,7-7h90.19c3.87,0,7,3.13,7,7V232
	C131.19,235.87,128.05,239,124.19,239z"/>
<path class="st1" d="M266,271.81H143c-3.87,0-7-3.13-7-7v-123c0-3.87,3.13-7,7-7h123c3.87,0,7,3.13,7,7v123
	C273,268.68,269.87,271.81,266,271.81z"/>
</svg>
