<?xml version="1.0" encoding="UTF-8"?>
<svg version="1.1" xmlns="http://www.w3.org/2000/svg" width="400" height="64">
<path d="M0 0 C7.71484375 -0.09765625 7.71484375 -0.09765625 10 0 C11 1 11 1 11.11352539 3.65209961 C11.10828857 4.80718018 11.10305176 5.96226074 11.09765625 7.15234375 C11.09443359 8.40337891 11.09121094 9.65441406 11.08789062 10.94335938 C11.07532227 12.92045898 11.07532227 12.92045898 11.0625 14.9375 C11.05798828 16.25169922 11.05347656 17.56589844 11.04882812 18.91992188 C11.0367229 22.27998585 11.01916983 25.63997093 11 29 C11 30.74092486 11.01616547 32.48183497 11.03515625 34.22265625 C11.04417969 35.48980469 11.05320313 36.75695313 11.0625 38.0625 C11.07410156 39.33222656 11.08570313 40.60195313 11.09765625 41.91015625 C11 45 11 45 10 46 C8.54332311 46.07254367 7.0833275 46.08373778 5.625 46.0625 C4.43777344 46.04896484 4.43777344 46.04896484 3.2265625 46.03515625 C2.49179687 46.02355469 1.75703125 46.01195312 1 46 C-0.90292118 46 -2.8066725 46.04190506 -4.70703125 46.140625 C-9.53721303 46.31074461 -13.06380736 46.43466087 -17.5 44.375 C-21.30411191 40.76109368 -23.70610331 37.65519731 -24.63671875 32.4140625 C-24.79071739 20.92339458 -24.79071739 20.92339458 -20.75 16.1875 C-17.0163305 12.57349939 -13.74624496 10.71406682 -8.5 10.75 C-7.7471875 10.74484375 -6.994375 10.7396875 -6.21875 10.734375 C-4 11 -4 11 0 13 C0 8.71 0 4.42 0 0 Z M-12.375 23.125 C-14.30285153 26.53581425 -14.72222637 28.14812602 -14 32 C-12.02033737 35.06307631 -12.02033737 35.06307631 -9 37 C-5.79268852 37 -3.8994965 36.50971468 -1.125 34.9375 C0.71974572 31.76043793 0.62964102 28.51608525 0 25 C-1.45997987 22.37283423 -1.45997987 22.37283423 -4 21 C-7.97708278 20.25429698 -9.33271623 20.40295663 -12.375 23.125 Z " fill="#EB3539" transform="translate(30,13)"/>
<path d="M0 0 C12.41836527 -0.40939666 12.41836527 -0.40939666 17 3 C18.50934217 6.01868434 18.17510672 8.67297229 18 12 C17.01 13.485 17.01 13.485 16 15 C16.99 16.32 17.98 17.64 19 19 C21.31 12.73 23.62 6.46 26 0 C27.98 0 29.96 0 32 0 C32.79211929 1.89564426 33.58367576 3.79152371 34.375 5.6875 C34.81585938 6.74324219 35.25671875 7.79898437 35.7109375 8.88671875 C36.82757462 11.58356657 37.92291801 14.28716264 39 17 C39.495 16.505 39.495 16.505 40 16 C41.99958364 15.95919217 44.00045254 15.95745644 46 16 C45.98839844 16.63808594 45.97679687 17.27617188 45.96484375 17.93359375 C45.95582031 18.75988281 45.94679688 19.58617188 45.9375 20.4375 C45.92589844 21.26121094 45.91429687 22.08492187 45.90234375 22.93359375 C45.76732652 24.99163938 45.76732652 24.99163938 47 26 C47.07205511 27.68608966 47.08386068 29.37500659 47.0625 31.0625 C47.05347656 31.98160156 47.04445313 32.90070312 47.03515625 33.84765625 C47.02355469 34.55792969 47.01195312 35.26820312 47 36 C47.66 36 48.32 36 49 36 C49 36.66 49 37.32 49 38 C47.35 37.67 45.7 37.34 44 37 C44 33.7 44 30.4 44 27 C42.35 27 40.7 27 39 27 C39 25.68 39 24.36 39 23 C37.02 23 35.04 23 33 23 C32.505 21.02 32.505 21.02 32 19 C30.35 19 28.7 19 27 19 C26.67 20.32 26.34 21.64 26 23 C23.73078464 23.13489391 21.4592933 23.23193995 19.1875 23.3125 C17.29064453 23.39951172 17.29064453 23.39951172 15.35546875 23.48828125 C12 23 12 23 10.05078125 20.60546875 C9 18 9 18 9 16 C8.34 16 7.68 16 7 16 C7 18.31 7 20.62 7 23 C4.69 23 2.38 23 0 23 C0 15.41 0 7.82 0 0 Z M7 7 C7 7.99 7 8.98 7 10 C8.32 10 9.64 10 11 10 C11 9.01 11 8.02 11 7 C9.68 7 8.36 7 7 7 Z M29 10 C30 13 30 13 30 13 Z " fill="#474747" transform="translate(270,18)"/>
<path d="M0 0 C0.66 0.33 1.32 0.66 2 1 C2 0.34 2 -0.32 2 -1 C3.32 -1 4.64 -1 6 -1 C5.67 0.65 5.34 2.3 5 4 C7.475 4.495 7.475 4.495 10 5 C10.33 10.94 10.66 16.88 11 23 C13.31 17.06 15.62 11.12 18 5 C19.98 5 21.96 5 24 5 C25.33871641 8.45627381 26.67005392 11.91534297 28 15.375 C28.3815625 16.35984375 28.763125 17.3446875 29.15625 18.359375 C29.69765625 19.77089844 29.69765625 19.77089844 30.25 21.2109375 C30.58515625 22.08024902 30.9203125 22.94956055 31.265625 23.84521484 C32 26 32 26 32 28 C29.36 28 26.72 28 24 28 C23.505 26.515 23.505 26.515 23 25 C21.35 24.67 19.7 24.34 18 24 C17.67 25.32 17.34 26.64 17 28 C5.51479821 29.0735426 5.51479821 29.0735426 1.80078125 26.44140625 C0.34583827 24.69054267 -0.8906408 22.98570231 -2 21 C-2.33 23.31 -2.66 25.62 -3 28 C-5.31 28 -7.62 28 -10 28 C-10 20.41 -10 12.82 -10 5 C-9.01 5 -8.02 5 -7 5 C-6.87625 4.195625 -6.7525 3.39125 -6.625 2.5625 C-6.41875 1.716875 -6.2125 0.87125 -6 0 C-3.4832097 -1.25839515 -2.62168527 -0.81927665 0 0 Z M-3 4 C-3.66 4.66 -4.32 5.32 -5 6 C-3.85793642 7.50287218 -2.71125043 9.00223284 -1.5625 10.5 C-0.60537109 11.75296875 -0.60537109 11.75296875 0.37109375 13.03125 C1.17740234 14.00578125 1.17740234 14.00578125 2 15 C2.33 15 2.66 15 3 15 C3 11.7 3 8.4 3 5 C0.09926819 4.32198966 0.09926819 4.32198966 -3 4 Z M20 16 C20 16.66 20 17.32 20 18 C20.66 17.67 21.32 17.34 22 17 C21.34 16.67 20.68 16.34 20 16 Z " fill="#424242" transform="translate(100,13)"/>
<path d="M0 0 C1.98 0 3.96 0 6 0 C6.79441072 1.87383903 7.58539974 3.74912886 8.375 5.625 C8.81585938 6.66914063 9.25671875 7.71328125 9.7109375 8.7890625 C10.9255467 11.81454359 11.96903873 14.9071162 13 18 C13.33 12.06 13.66 6.12 14 0 C20 0 20 0 21.8984375 1.53125 C22.62933594 2.50578125 22.62933594 2.50578125 23.375 3.5 C24.12910156 4.47453125 24.12910156 4.47453125 24.8984375 5.46875 C25.26195312 5.9740625 25.62546875 6.479375 26 7 C26.33 4.69 26.66 2.38 27 0 C29.33294775 -0.04241723 31.66702567 -0.04092937 34 0 C35 1 35 1 35.11352539 3.13305664 C35.10828857 4.04949951 35.10305176 4.96594238 35.09765625 5.91015625 C35.09443359 6.89951172 35.09121094 7.88886719 35.08789062 8.90820312 C35.07532227 10.46958008 35.07532227 10.46958008 35.0625 12.0625 C35.05798828 13.10728516 35.05347656 14.15207031 35.04882812 15.22851562 C35.03699913 17.8190666 35.02051689 20.40950559 35 23 C29.53172867 23.42888403 29.53172867 23.42888403 27.1015625 21.46875 C26.61429688 20.8190625 26.12703125 20.169375 25.625 19.5 C25.12226563 18.8503125 24.61953125 18.200625 24.1015625 17.53125 C23.73804688 17.0259375 23.37453125 16.520625 23 16 C22.67 18.31 22.34 20.62 22 23 C17.05 23 12.1 23 7 23 C6.67 21.68 6.34 20.36 6 19 C4.35 19.33 2.7 19.66 1 20 C0.67 20.99 0.34 21.98 0 23 C-2.64 23 -5.28 23 -8 23 C-5.47191206 15.28267891 -2.74972528 7.64054098 0 0 Z M3 11 C2.67 11.66 2.34 12.32 2 13 C2.66 13 3.32 13 4 13 C3.67 12.34 3.34 11.68 3 11 Z " fill="#3B3B3B" transform="translate(212,18)"/>
<path d="M0 0 C12.71428571 0 12.71428571 0 17 3 C18.875 5.1875 18.875 5.1875 20 7 C20.5775 6.21625 21.155 5.4325 21.75 4.625 C25 0.83333333 25 0.83333333 28 0 C33.08173299 0 35.0291167 0.21115732 39 3.4375 C41.50515862 6.96517234 41.70423043 10.41846867 41.5 14.65625 C40.73421779 18.24585412 38.88588695 19.86994058 36 22 C32.85088521 23.57455739 30.47991184 23.34799118 27 23 C24.02327416 21.22719439 21.57195993 19.14391985 20 16 C19.4225 16.78375 18.845 17.5675 18.25 18.375 C16.04154567 20.95153005 15.08639842 21.84260059 12 23 C7.98216016 23.26022279 4.0314117 23.08763938 0 23 C0 15.41 0 7.82 0 0 Z M7 7 C7 9.97 7 12.94 7 16 C8.65 15.67 10.3 15.34 12 15 C12.6878236 12.64632287 12.6878236 12.64632287 13 10 C12.34 9.01 11.68 8.02 11 7 C9.68 7 8.36 7 7 7 Z M29 7 C28.34 7.66 27.68 8.32 27 9 C27.32326553 12.59679066 27.32326553 12.59679066 28 16 C28.99 16.33 29.98 16.66 31 17 C31.99 16.34 32.98 15.68 34 15 C34.25015873 11.41642759 34.25015873 11.41642759 34 8 C31.60280568 7.32041397 31.60280568 7.32041397 29 7 Z " fill="#EC3539" transform="translate(47,18)"/>
<path d="M0 0 C5.28 0 10.56 0 16 0 C16 2.31 16 4.62 16 7 C15.67 7.33 15.34 7.66 15 8 C14.95919217 9.99958364 14.95745644 12.00045254 15 14 C12.69 14.33 10.38 14.66 8 15 C8.83144531 15.06058594 9.66289062 15.12117188 10.51953125 15.18359375 C11.60621094 15.26738281 12.69289062 15.35117187 13.8125 15.4375 C14.89144531 15.51871094 15.97039062 15.59992187 17.08203125 15.68359375 C20 16 20 16 23 17 C23.33 11.39 23.66 5.78 24 0 C26.31 0 28.62 0 31 0 C31.08126109 2.72977064 31.14061663 5.4571017 31.1875 8.1875 C31.21263672 8.95642578 31.23777344 9.72535156 31.26367188 10.51757812 C31.32377188 15.18534511 31.04102023 18.20792877 28 22 C25.28598706 23.35700647 23.15153684 23.1123861 20.1171875 23.09765625 C18.95058594 23.09443359 17.78398437 23.09121094 16.58203125 23.08789062 C15.35871094 23.07951172 14.13539063 23.07113281 12.875 23.0625 C11.64394531 23.05798828 10.41289062 23.05347656 9.14453125 23.04882812 C6.09633361 23.03701341 3.04816084 23.0190775 0 23 C0 15.41 0 7.82 0 0 Z " fill="#252525" transform="translate(174,18)"/>
<path d="M0 0 C4.40277438 0.78271545 6.23981362 4.0343881 8.8125 7.5 C9.4725 5.19 10.1325 2.88 10.8125 0.5 C13.1225 0.5 15.4325 0.5 17.8125 0.5 C17.8125 8.09 17.8125 15.68 17.8125 23.5 C11.8125 23.5 11.8125 23.5 9.9140625 21.96875 C9.42679687 21.3190625 8.93953125 20.669375 8.4375 20 C7.93476563 19.3503125 7.43203125 18.700625 6.9140625 18.03125 C6.55054688 17.5259375 6.18703125 17.020625 5.8125 16.5 C5.4825 18.81 5.1525 21.12 4.8125 23.5 C2.1725 23.5 -0.4675 23.5 -3.1875 23.5 C-3.21637512 19.85418313 -3.23425585 16.20839537 -3.25 12.5625 C-3.25837891 11.52158203 -3.26675781 10.48066406 -3.27539062 9.40820312 C-3.28022461 7.92416992 -3.28022461 7.92416992 -3.28515625 6.41015625 C-3.29039307 5.49371338 -3.29562988 4.57727051 -3.30102539 3.63305664 C-3.1450426 0.70225734 -2.84479669 0.65023924 0 0 Z " fill="#454545" transform="translate(337.1875,17.5)"/>
<path d="M0 0 C12.86206897 0 12.86206897 0 17 3 C19.40777323 5.88932788 19.96115399 7.69478136 20.4375 11.4375 C19.91606726 15.68345227 18.73082959 17.73817577 16 21 C11.17309406 24.19998006 5.56084751 23.12088799 0 23 C0 15.41 0 7.82 0 0 Z M7 7 C7 9.97 7 12.94 7 16 C8.65 15.67 10.3 15.34 12 15 C12.93065133 12.39417629 13.14917407 11.35801776 12.0625 8.75 C11.711875 8.1725 11.36125 7.595 11 7 C9.68 7 8.36 7 7 7 Z " fill="#3B3B3B" transform="translate(249,18)"/>
<path d="M0 0 C12.41836527 -0.40939666 12.41836527 -0.40939666 17 3 C18.50934217 6.01868434 18.17510672 8.67297229 18 12 C17.01 13.485 17.01 13.485 16 15 C16.99 16.485 16.99 16.485 18 18 C18 19.32 18 20.64 18 22 C15.75 22.25 15.75 22.25 13 22 C10.6875 20.125 10.6875 20.125 9 18 C9 17.34 9 16.68 9 16 C8.34 16 7.68 16 7 16 C7 18.31 7 20.62 7 23 C4.69 23 2.38 23 0 23 C0 15.41 0 7.82 0 0 Z M7 7 C7 7.99 7 8.98 7 10 C8.32 10 9.64 10 11 10 C11 9.01 11 8.02 11 7 C9.68 7 8.36 7 7 7 Z " fill="#353535" transform="translate(270,18)"/>
<path d="M0 0 C1.98 0 3.96 0 6 0 C6.79441072 1.87383903 7.58539974 3.74912886 8.375 5.625 C8.81585938 6.66914063 9.25671875 7.71328125 9.7109375 8.7890625 C10.9255467 11.81454359 11.96903873 14.9071162 13 18 C13.33 12.06 13.66 6.12 14 0 C15.98 0 17.96 0 20 0 C20 0.33 20 0.66 20 1 C18.35 1 16.7 1 15 1 C15.00785522 1.94637329 15.00785522 1.94637329 15.01586914 2.91186523 C15.03657826 5.75373347 15.04964066 8.59558588 15.0625 11.4375 C15.07087891 12.43072266 15.07925781 13.42394531 15.08789062 14.44726562 C15.09272461 15.86362305 15.09272461 15.86362305 15.09765625 17.30859375 C15.10551147 18.62041626 15.10551147 18.62041626 15.11352539 19.95874023 C15 22 15 22 14 23 C11.66702567 23.04092937 9.33294775 23.04241723 7 23 C6.67 21.68 6.34 20.36 6 19 C4.35 19.33 2.7 19.66 1 20 C0.67 20.99 0.34 21.98 0 23 C-2.64 23 -5.28 23 -8 23 C-5.47191206 15.28267891 -2.74972528 7.64054098 0 0 Z M3 11 C2.67 11.66 2.34 12.32 2 13 C2.66 13 3.32 13 4 13 C3.67 12.34 3.34 11.68 3 11 Z " fill="#545454" transform="translate(212,18)"/>
<path d="M0 0 C5 0 5 0 6.80078125 1.53125 C7.29964844 2.1809375 7.79851562 2.830625 8.3125 3.5 C8.82425781 4.1496875 9.33601563 4.799375 9.86328125 5.46875 C10.23839844 5.9740625 10.61351563 6.479375 11 7 C11.33 4.69 11.66 2.38 12 0 C13.98 0 15.96 0 18 0 C18 6.93 18 13.86 18 21 C11 20 11 20 8.625 17.625 C7 15 7 15 6 12 C5.67 14.97 5.34 17.94 5 21 C3.35 21 1.7 21 0 21 C0 14.07 0 7.14 0 0 Z " fill="#131313" transform="translate(91,19)"/>
<path d="M0 0 C3.26165927 2.69441418 4.66541474 4.30818583 5.484375 8.44921875 C5.73514282 13.10932075 5.5469068 15.29477807 2.625 19.0625 C-1.4899171 22.09970072 -3.83909023 22.51609098 -9 22 C-13.32301022 19.64199443 -13.32301022 19.64199443 -15 17 C-15.87171262 13.4838974 -15.8598298 10.51799644 -15 7 C-11.42889931 1.45978772 -6.61290679 -0.92580695 0 0 Z M-7 6 C-7.66 6.66 -8.32 7.32 -9 8 C-8.67673447 11.59679066 -8.67673447 11.59679066 -8 15 C-7.01 15.33 -6.02 15.66 -5 16 C-4.01 15.34 -3.02 14.68 -2 14 C-1.74984127 10.41642759 -1.74984127 10.41642759 -2 7 C-4.39719432 6.32041397 -4.39719432 6.32041397 -7 6 Z " fill="#2F2F2F" transform="translate(83,19)"/>
<path d="M0 0 C1.2065625 0.0309375 1.2065625 0.0309375 2.4375 0.0625 C10.4375 15.20535714 10.4375 15.20535714 10.4375 23.0625 C8.1275 23.0625 5.8175 23.0625 3.4375 23.0625 C3.1075 21.7425 2.7775 20.4225 2.4375 19.0625 C0.7875 19.0625 -0.8625 19.0625 -2.5625 19.0625 C-2.8925 20.3825 -3.2225 21.7025 -3.5625 23.0625 C-5.8725 23.0625 -8.1825 23.0625 -10.5625 23.0625 C-9.91942944 17.95812747 -8.40081927 13.51488886 -6.5625 8.75 C-6.28921875 8.02232422 -6.0159375 7.29464844 -5.734375 6.54492188 C-3.27610201 0.07990493 -3.27610201 0.07990493 0 0 Z M-0.5625 10.0625 C0.4375 13.0625 0.4375 13.0625 0.4375 13.0625 Z " fill="#EE4548" transform="translate(145.5625,17.9375)"/>
<path d="M0 0 C2 1.375 2 1.375 3 3 C3 3.99 3 4.98 3 6 C0 8 0 8 -3 8 C-3 7.34 -3 6.68 -3 6 C-4.65 6 -6.3 6 -8 6 C-8 8.97 -8 11.94 -8 15 C-6.35 15 -4.7 15 -3 15 C-3 14.34 -3 13.68 -3 13 C-1.02 13.66 0.96 14.32 3 15 C2.64393309 17.58148508 2.16671807 18.82045747 0.375 20.75 C-3.02661839 22.54032547 -5.20173198 22.52389904 -9 22 C-11.97046873 20.20976215 -14.42502414 18.14995172 -16 15 C-16.52999351 11.21433208 -16.83021253 7.55143964 -14.98828125 4.109375 C-10.55107759 -1.38049859 -6.42278944 -1.52541249 0 0 Z " fill="#424242" transform="translate(372,19)"/>
<path d="M0 0 C5.28 0 10.56 0 16 0 C16 0.33 16 0.66 16 1 C11.05 1 6.1 1 1 1 C1 7.93 1 14.86 1 22 C5.95 22 10.9 22 16 22 C16 20.35 16 18.7 16 17 C19.01031744 16.06576355 19.86650268 15.95550089 23 17 C23.33 11.39 23.66 5.78 24 0 C26.31 0 28.62 0 31 0 C31.08126109 2.72977064 31.14061663 5.4571017 31.1875 8.1875 C31.21263672 8.95642578 31.23777344 9.72535156 31.26367188 10.51757812 C31.32377188 15.18534511 31.04102023 18.20792877 28 22 C25.28598706 23.35700647 23.15153684 23.1123861 20.1171875 23.09765625 C18.95058594 23.09443359 17.78398437 23.09121094 16.58203125 23.08789062 C15.35871094 23.07951172 14.13539063 23.07113281 12.875 23.0625 C11.64394531 23.05798828 10.41289062 23.05347656 9.14453125 23.04882812 C6.09633361 23.03701341 3.04816084 23.0190775 0 23 C0 15.41 0 7.82 0 0 Z " fill="#6A6A6A" transform="translate(174,18)"/>
<path d="M0 0 C2.31 0 4.62 0 7 0 C7 5.28 7 10.56 7 16 C9.97 16 12.94 16 16 16 C16 18.31 16 20.62 16 23 C10.72 23 5.44 23 0 23 C0 15.41 0 7.82 0 0 Z " fill="#444444" transform="translate(157,18)"/>
<path d="M0 0 C2.97 0 5.94 0 9 0 C9 9.24 9 18.48 9 28 C1.2688782 18.33609775 -0.80440056 12.56652429 0 0 Z " fill="#0D0D0D" transform="translate(31,13)"/>
<path d="M0 0 C2.31 0 4.62 0 7 0 C7 7.59 7 15.18 7 23 C4.69 23 2.38 23 0 23 C0 15.41 0 7.82 0 0 Z " fill="#ED3C40" transform="translate(325,18)"/>
<path d="M0 0 C0.66 0.33 1.32 0.66 2 1 C2 0.34 2 -0.32 2 -1 C3.32 -1 4.64 -1 6 -1 C5.67 0.65 5.34 2.3 5 4 C7.475 4.495 7.475 4.495 10 5 C10.33 11.93 10.66 18.86 11 26 C12.98 26.33 14.96 26.66 17 27 C17 27.33 17 27.66 17 28 C12.71 28 8.42 28 4 28 C3.67 27.34 3.34 26.68 3 26 C4.98 26.33 6.96 26.66 9 27 C9 20.07 9 13.14 9 6 C7.14375 5.814375 5.2875 5.62875 3.375 5.4375 C2.33085938 5.33308594 1.28671875 5.22867187 0.2109375 5.12109375 C-3.48482345 4.87375237 -3.48482345 4.87375237 -9 6 C-9 12.93 -9 19.86 -9 27 C-7.35 27 -5.7 27 -4 27 C-4 23.7 -4 20.4 -4 17 C-3.34 17.66 -2.68 18.32 -2 19 C-2.0234375 21.1640625 -2.0234375 21.1640625 -2.375 23.625 C-2.48585938 24.44226563 -2.59671875 25.25953125 -2.7109375 26.1015625 C-2.80632812 26.72804688 -2.90171875 27.35453125 -3 28 C-5.31 28 -7.62 28 -10 28 C-10 20.41 -10 12.82 -10 5 C-9.01 5 -8.02 5 -7 5 C-6.87625 4.195625 -6.7525 3.39125 -6.625 2.5625 C-6.41875 1.716875 -6.2125 0.87125 -6 0 C-3.4832097 -1.25839515 -2.62168527 -0.81927665 0 0 Z " fill="#9D9D9D" transform="translate(100,13)"/>
<path d="M0 0 C1.98 0 3.96 0 6 0 C5.98839844 0.63808594 5.97679687 1.27617188 5.96484375 1.93359375 C5.95582031 2.75988281 5.94679688 3.58617187 5.9375 4.4375 C5.92589844 5.26121094 5.91429687 6.08492187 5.90234375 6.93359375 C5.76732652 8.99163938 5.76732652 8.99163938 7 10 C7.07205511 11.68608966 7.08386068 13.37500659 7.0625 15.0625 C7.05347656 15.98160156 7.04445313 16.90070312 7.03515625 17.84765625 C7.02355469 18.55792969 7.01195312 19.26820312 7 20 C7.66 20 8.32 20 9 20 C9 20.66 9 21.32 9 22 C7.35 21.67 5.7 21.34 4 21 C4 17.7 4 14.4 4 11 C2.35 11 0.7 11 -1 11 C-1 9.68 -1 8.36 -1 7 C-2.98 7 -4.96 7 -7 7 C-7 6.67 -7 6.34 -7 6 C-5.02 6 -3.04 6 -1 6 C-0.67 4.02 -0.34 2.04 0 0 Z " fill="#C4C4C4" transform="translate(310,34)"/>
<path d="M0 0 C1.875 1.125 1.875 1.125 3 3 C2.875 6.0625 2.875 6.0625 2 9 C-1 11 -1 11 -3.5625 10.75 C-6 10 -6 10 -8 8 C-7.75 4.4375 -7.75 4.4375 -7 1 C-4.45132831 -0.27433584 -2.82594567 -0.27570202 0 0 Z " fill="#ED4245" transform="translate(38,1)"/>
<path d="M0 0 C0.05422947 1.4370809 0.09289723 2.87475462 0.125 4.3125 C0.14820313 5.11300781 0.17140625 5.91351563 0.1953125 6.73828125 C0 9 0 9 -2 12 C-5.125 12.1875 -5.125 12.1875 -8 12 C-9.17571451 8.32589215 -9.07366746 4.83070817 -9 1 C-6.04335481 -0.4783226 -3.25770263 -0.06032783 0 0 Z M-6 2 C-6.33 3.32 -6.66 4.64 -7 6 C-5.68 6 -4.36 6 -3 6 C-3.33 4.68 -3.66 3.36 -4 2 C-4.66 2 -5.32 2 -6 2 Z M-7 9 C-3 10 -3 10 -3 10 Z " fill="#B5B5B5" transform="translate(227,47)"/>
<path d="M0 0 C0.33 0.99 0.66 1.98 1 3 C-1.31 2.67 -3.62 2.34 -6 2 C-5.67 3.98 -5.34 5.96 -5 8 C-4.67 7.67 -4.34 7.34 -4 7 C-4 6.34 -4 5.68 -4 5 C-2.35 5 -0.7 5 1 5 C1 6.98 1 8.96 1 11 C-4.23519826 11.42911461 -4.23519826 11.42911461 -7 11 C-9.125 8.875 -9.125 8.875 -10 6 C-9.3125 2.75 -9.3125 2.75 -8 0 C-5.13822943 -1.43088528 -3.06624227 -0.59991697 0 0 Z " fill="#C1C1C1" transform="translate(55,45)"/>
<path d="M0 0 C1.2065625 0.0309375 1.2065625 0.0309375 2.4375 0.0625 C2.7675 1.3825 3.0975 2.7025 3.4375 4.0625 C2.1175 4.0625 0.7975 4.0625 -0.5625 4.0625 C1.0875 5.0525 2.7375 6.0425 4.4375 7.0625 C3.5625 10.9375 3.5625 10.9375 2.4375 12.0625 C-3.09191176 12.29779412 -3.09191176 12.29779412 -5.5625 11.0625 C-5.2325 10.0725 -4.9025 9.0825 -4.5625 8.0625 C-3.2425 8.0625 -1.9225 8.0625 -0.5625 8.0625 C-1.8825 7.4025 -3.2025 6.7425 -4.5625 6.0625 C-3.48963568 0.08511307 -3.48963568 0.08511307 0 0 Z " fill="#B5B5B5" transform="translate(288.5625,43.9375)"/>
<path d="M0 0 C0.99 0 1.98 0 3 0 C3 0.99 3 1.98 3 3 C3.804375 3.144375 4.60875 3.28875 5.4375 3.4375 C8 4 8 4 9 5 C9.1875 7.4375 9.1875 7.4375 9 10 C7 12 7 12 3.375 12.125 C2.26125 12.08375 1.1475 12.0425 0 12 C0 8.04 0 4.08 0 0 Z M4 5 C3.34 6.32 2.68 7.64 2 9 C3.32 9 4.64 9 6 9 C5.67 7.68 5.34 6.36 5 5 C4.67 5 4.34 5 4 5 Z " fill="#AFAFAF" transform="translate(88,44)"/>
<path d="M0 0 C2.5 0.25 2.5 0.25 4.5 2.25 C3.93181818 7.81818182 3.93181818 7.81818182 2.5 9.25 C0.0625 9.4375 0.0625 9.4375 -2.5 9.25 C-4.5 7.25 -4.5 7.25 -4.75 4.75 C-4.40058445 1.25584452 -3.49415548 0.34941555 0 0 Z " fill="#DFDFDF" transform="translate(177.5,46.75)"/>
<path d="M0 0 C2.5 0.25 2.5 0.25 4.5 2.25 C3.93181818 7.81818182 3.93181818 7.81818182 2.5 9.25 C0.0625 9.4375 0.0625 9.4375 -2.5 9.25 C-4.5 7.25 -4.5 7.25 -4.75 4.75 C-4.40058445 1.25584452 -3.49415548 0.34941555 0 0 Z " fill="#AEAEAE" transform="translate(237.5,46.75)"/>
<path d="M0 0 C2.375 -0.125 2.375 -0.125 5 0 C7 2 7 2 7.125 5.625 C7.08375 6.73875 7.0425 7.8525 7 9 C4.69 9 2.38 9 0 9 C-0.84454356 5.62182575 -1.10844919 3.32534757 0 0 Z M2 5 C1.67 5.66 1.34 6.32 1 7 C1.99 7 2.98 7 4 7 C4 6.34 4 5.68 4 5 C3.34 5 2.68 5 2 5 Z " fill="#B3B3B3" transform="translate(104,47)"/>
<path d="M0 0 C2.5 0.25 2.5 0.25 4.5 2.25 C4.75 4.75 4.75 4.75 4.5 7.25 C2.5 9.25 2.5 9.25 0 9.5 C-2.5 9.25 -2.5 9.25 -4.5 7.25 C-4.75 4.75 -4.75 4.75 -4.5 2.25 C-2.5 0.25 -2.5 0.25 0 0 Z M-0.5 2.25 C-1.49 3.735 -1.49 3.735 -2.5 5.25 C-2.17 5.91 -1.84 6.57 -1.5 7.25 C-0.51 6.92 0.48 6.59 1.5 6.25 C1.17 4.93 0.84 3.61 0.5 2.25 C0.17 2.25 -0.16 2.25 -0.5 2.25 Z " fill="#CACACA" transform="translate(303.5,46.75)"/>
<path d="M0 0 C2.5 0.25 2.5 0.25 4.5 2.25 C4.75 4.75 4.75 4.75 4.5 7.25 C2.5 9.25 2.5 9.25 0 9.5 C-2.5 9.25 -2.5 9.25 -4.5 7.25 C-4.75 4.75 -4.75 4.75 -4.5 2.25 C-2.5 0.25 -2.5 0.25 0 0 Z M-0.5 2.25 C-1.49 3.735 -1.49 3.735 -2.5 5.25 C-2.17 5.91 -1.84 6.57 -1.5 7.25 C-0.51 6.92 0.48 6.59 1.5 6.25 C1.17 4.93 0.84 3.61 0.5 2.25 C0.17 2.25 -0.16 2.25 -0.5 2.25 Z " fill="#C9C9C9" transform="translate(364.5,46.75)"/>
<path d="M0 0 C0.625 2.3125 0.625 2.3125 1 5 C0.01 6.485 0.01 6.485 -1 8 C-4 8.375 -4 8.375 -7 8 C-9 5 -9 5 -8.75 2.375 C-8.5025 1.59125 -8.255 0.8075 -8 0 C-5.13822943 -1.43088528 -3.06624227 -0.59991697 0 0 Z M-5 1 C-5.33 2.32 -5.66 3.64 -6 5 C-4.68 5 -3.36 5 -2 5 C-2.33 3.68 -2.66 2.36 -3 1 C-3.66 1 -4.32 1 -5 1 Z " fill="#BFBFBF" transform="translate(81,48)"/>
<path d="M0 0 C0.66 0 1.32 0 2 0 C2.33 1.98 2.66 3.96 3 6 C3.33 6 3.66 6 4 6 C4.33 4.02 4.66 2.04 5 0 C5.99 0 6.98 0 8 0 C8 2.97 8 5.94 8 9 C5.36 9 2.72 9 0 9 C0 6.03 0 3.06 0 0 Z " fill="#B3B3B3" transform="translate(325,47)"/>
<path d="M0 0 C2.33294775 -0.04241723 4.66702567 -0.04092937 7 0 C8 1 8 1 8.09765625 2.84765625 C8.04882812 5.92382812 8.04882812 5.92382812 8 9 C7.34 9 6.68 9 6 9 C5.67 7.02 5.34 5.04 5 3 C4.67 3 4.34 3 4 3 C3.67 4.98 3.34 6.96 3 9 C2.01 9 1.02 9 0 9 C0 6.03 0 3.06 0 0 Z " fill="#B5B5B5" transform="translate(375,47)"/>
<path d="M0 0 C2.33294775 -0.04241723 4.66702567 -0.04092937 7 0 C8 1 8 1 8.09765625 2.84765625 C8.04882812 5.92382812 8.04882812 5.92382812 8 9 C7.34 9 6.68 9 6 9 C5.67 7.02 5.34 5.04 5 3 C4.67 3 4.34 3 4 3 C3.67 4.98 3.34 6.96 3 9 C2.01 9 1.02 9 0 9 C0 6.03 0 3.06 0 0 Z " fill="#B7B7B7" transform="translate(248,47)"/>
<path d="M0 0 C2.33294775 -0.04241723 4.66702567 -0.04092937 7 0 C8 1 8 1 8.09765625 2.84765625 C8.04882812 5.92382812 8.04882812 5.92382812 8 9 C7.34 9 6.68 9 6 9 C5.67 7.02 5.34 5.04 5 3 C4.67 3 4.34 3 4 3 C3.67 4.98 3.34 6.96 3 9 C2.01 9 1.02 9 0 9 C0 6.03 0 3.06 0 0 Z " fill="#B4B4B4" transform="translate(147,47)"/>
<path d="M0 0 C0.99 0 1.98 0 3 0 C3 0.99 3 1.98 3 3 C3.66 3 4.32 3 5 3 C5 3.66 5 4.32 5 5 C4.34 5 3.68 5 3 5 C3.33 5.598125 3.66 6.19625 4 6.8125 C5 9 5 9 5 12 C3.35 11.67 1.7 11.34 0 11 C-1.125 3.375 -1.125 3.375 0 0 Z " fill="#BFBFBF" transform="translate(263,44)"/>
<path d="M0 0 C0.99 0 1.98 0 3 0 C3 0.99 3 1.98 3 3 C3.66 3 4.32 3 5 3 C5 3.66 5 4.32 5 5 C4.34 5 3.68 5 3 5 C3.33 5.598125 3.66 6.19625 4 6.8125 C5 9 5 9 5 12 C3.35 11.67 1.7 11.34 0 11 C-1.125 3.375 -1.125 3.375 0 0 Z " fill="#BBBBBB" transform="translate(162,44)"/>
<path d="M0 0 C0.99 0 1.98 0 3 0 C3.06058594 0.61488281 3.12117188 1.22976562 3.18359375 1.86328125 C3.26738281 2.67152344 3.35117187 3.47976562 3.4375 4.3125 C3.51871094 5.11300781 3.59992188 5.91351563 3.68359375 6.73828125 C3.95265693 9.16087179 3.95265693 9.16087179 5 12 C3.35 12 1.7 12 0 12 C-0.19573608 10.56359829 -0.38127816 9.12580496 -0.5625 7.6875 C-0.66691406 6.88699219 -0.77132813 6.08648437 -0.87890625 5.26171875 C-1 3 -1 3 0 0 Z " fill="#BBBBBB" transform="translate(340,44)"/>
<path d="M0 0 C1.2065625 0.0309375 1.2065625 0.0309375 2.4375 0.0625 C2.4375 3.0325 2.4375 6.0025 2.4375 9.0625 C0.4575 9.0625 -1.5225 9.0625 -3.5625 9.0625 C-3.5625 8.0725 -3.5625 7.0825 -3.5625 6.0625 C-3.5934375 4.763125 -3.5934375 4.763125 -3.625 3.4375 C-3.5374556 0.11081288 -3.33745554 0.08140135 0 0 Z " fill="#BCBCBC" transform="translate(393.5625,46.9375)"/>
<path d="M0 0 C1.98 0 3.96 0 6 0 C6 2.31 6 4.62 6 7 C4.02 7 2.04 7 0 7 C0 4.69 0 2.38 0 0 Z " fill="#CDCECE" transform="translate(376,34)"/>
<path d="M0 0 C-1.79885447 1.19923631 -3.62578844 2.35982835 -5.5 3.4375 C-8.64378237 5.31946594 -8.64378237 5.31946594 -11 8 C-11.54761815 10.67960727 -11.77569465 13.26347479 -12 16 C-15.00617269 12.99382731 -14.59585316 10.17618402 -15 6 C-14.01 6 -13.02 6 -12 6 C-10.29220027 4.37550757 -8.62449243 2.70779973 -7 1 C-4.53721199 -0.231394 -2.7204945 -0.07159196 0 0 Z " fill="#B4A9A9" transform="translate(80,18)"/>
<path d="M0 0 C0.99 0 1.98 0 3 0 C3 3.3 3 6.6 3 10 C3.66 10 4.32 10 5 10 C5 10.66 5 11.32 5 12 C3.35 11.67 1.7 11.34 0 11 C0 7.37 0 3.74 0 0 Z " fill="#BBBBBB" transform="translate(198,44)"/>
<path d="M0 0 C0.99 0 1.98 0 3 0 C3 3.3 3 6.6 3 10 C3.66 10 4.32 10 5 10 C5 10.66 5 11.32 5 12 C3.35 11.67 1.7 11.34 0 11 C0 7.37 0 3.74 0 0 Z " fill="#C1C1C1" transform="translate(188,44)"/>
<path d="M0 0 C1.32 0 2.64 0 4 0 C4 2.64 4 5.28 4 8 C2.35 8.33 0.7 8.66 -1 9 C-0.67 6.03 -0.34 3.06 0 0 Z " fill="#030303" transform="translate(311,35)"/>
<path d="M0 0 C0.99 0 1.98 0 3 0 C3 3.96 3 7.92 3 12 C2.01 12 1.02 12 0 12 C0 8.04 0 4.08 0 0 Z " fill="#BDBDBD" transform="translate(137,44)"/>
<path d="M0 0 C0.99 0 1.98 0 3 0 C3 3.96 3 7.92 3 12 C2.01 12 1.02 12 0 12 C0 8.04 0 4.08 0 0 Z " fill="#CACACA" transform="translate(351,44)"/>
<path d="M0 0 C0.99 0 1.98 0 3 0 C3 3.96 3 7.92 3 12 C2.01 12 1.02 12 0 12 C0 8.04 0 4.08 0 0 Z " fill="#C3C3C3" transform="translate(208,44)"/>
<path d="M0 0 C0.99 0.33 1.98 0.66 3 1 C2.34 1 1.68 1 1 1 C1 1.66 1 2.32 1 3 C2.98 2.67 4.96 2.34 7 2 C7 2.66 7 3.32 7 4 C5.02 4 3.04 4 1 4 C1 4.66 1 5.32 1 6 C2.65 6 4.3 6 6 6 C6 6.66 6 7.32 6 8 C3.625 8.125 3.625 8.125 1 8 C-1 6 -1 6 -1.1875 3.4375 C-1 1 -1 1 0 0 Z " fill="#9A9A9A" transform="translate(174,48)"/>
<path d="M0 0 C4.875 0.875 4.875 0.875 6 2 C6.04063832 3.66617115 6.042721 5.33388095 6 7 C5.01 7.495 5.01 7.495 4 8 C2 6 2 6 1 3 C0.01 3.495 0.01 3.495 -1 4 C-0.67 2.68 -0.34 1.36 0 0 Z " fill="#BEBEBE" transform="translate(91,47)"/>
<path d="M0 0 C1.65 0 3.3 0 5 0 C5 1.98 5 3.96 5 6 C3.02 6 1.04 6 -1 6 C-1.33 5.34 -1.66 4.68 -2 4 C-1.01 3.67 -0.02 3.34 1 3 C0.67 2.01 0.34 1.02 0 0 Z " fill="#B1B1B1" transform="translate(51,50)"/>
<path d="M0 0 C0.66 0 1.32 0 2 0 C2 3.3 2 6.6 2 10 C2.66 10 3.32 10 4 10 C4 10.66 4 11.32 4 12 C2.68 12 1.36 12 0 12 C0 8.04 0 4.08 0 0 Z " fill="#A9A9A9" transform="translate(118,44)"/>
<path d="M0 0 C0.66 0 1.32 0 2 0 C2 3.3 2 6.6 2 10 C2.66 10 3.32 10 4 10 C4 10.66 4 11.32 4 12 C2.68 12 1.36 12 0 12 C0 8.04 0 4.08 0 0 Z " fill="#A1A1A1" transform="translate(63,44)"/>
<path d="M0 0 C0.625 1.8125 0.625 1.8125 1 4 C0.01 5.485 0.01 5.485 -1 7 C-3.625 7.1875 -3.625 7.1875 -6 7 C-6.33 6.34 -6.66 5.68 -7 5 C-6.67 4.34 -6.34 3.68 -6 3 C-4.02 3 -2.04 3 0 3 C0 2.01 0 1.02 0 0 Z " fill="#D1D1D1" transform="translate(241,49)"/>
<path d="M0 0 C0.66 1.32 1.32 2.64 2 4 C3.98491642 3.73323796 3.98491642 3.73323796 6 3 C6.33 2.01 6.66 1.02 7 0 C7.042721 1.66611905 7.04063832 3.33382885 7 5 C6 6 6 6 3.5 6.125 C1 6 1 6 0 5 C-0.04063832 3.33382885 -0.042721 1.66611905 0 0 Z " fill="#9E9E9E" transform="translate(361,50)"/>
<path d="M0 0 C0.66 1.32 1.32 2.64 2 4 C3.98491642 3.73323796 3.98491642 3.73323796 6 3 C6.33 2.01 6.66 1.02 7 0 C7.042721 1.66611905 7.04063832 3.33382885 7 5 C6 6 6 6 3.5 6.125 C1 6 1 6 0 5 C-0.04063832 3.33382885 -0.042721 1.66611905 0 0 Z " fill="#9D9D9D" transform="translate(300,50)"/>
<path d="M0 0 C0.268125 0.61875 0.53625 1.2375 0.8125 1.875 C1.95556848 4.2995233 1.95556848 4.2995233 5 6 C3.35 6.33 1.7 6.66 0 7 C-2 4 -2 4 -2 1 C-1.34 0.67 -0.68 0.34 0 0 Z " fill="#ACACAC" transform="translate(74,49)"/>
<path d="M0 0 C1.2065625 0.0309375 1.2065625 0.0309375 2.4375 0.0625 C2.7675 1.3825 3.0975 2.7025 3.4375 4.0625 C1.4575 4.3925 -0.5225 4.7225 -2.5625 5.0625 C-3.125 3.125 -3.125 3.125 -3.5625 1.0625 C-2.5625 0.0625 -2.5625 0.0625 0 0 Z " fill="#CACACA" transform="translate(288.5625,43.9375)"/>
<path d="M0 0 C2.97 0.495 2.97 0.495 6 1 C6.33 1.99 6.66 2.98 7 4 C4.36 3.67 1.72 3.34 -1 3 C-0.67 2.01 -0.34 1.02 0 0 Z " fill="#BABABA" transform="translate(49,44)"/>
<path d="M0 0 C1.32 0 2.64 0 4 0 C4 1.65 4 3.3 4 5 C2.68 5 1.36 5 0 5 C0 3.35 0 1.7 0 0 Z " fill="#000000" transform="translate(377,35)"/>
<path d="M0 0 C1.65 0 3.3 0 5 0 C5.33 0.66 5.66 1.32 6 2 C5.67 2.66 5.34 3.32 5 4 C2.03 3.505 2.03 3.505 -1 3 C-0.67 2.01 -0.34 1.02 0 0 Z " fill="#C9C9C9" transform="translate(104,47)"/>
</svg>
